# xmcd
#
# Track frame offsets:
#	150
#	15662
#	26433
#	40178
#	53586
#	70704
#	81867
#	98135
#	111008
#	125923
#	139590
#	148701
#	160338
#
# Disc length: 2285 seconds
#
# Revision: 1
# Processed by: cddbd v1.5.2PL0 Copyright (c) Steve Scherf et al.
# Submitted via: EasyCDDAExtractor 5.0.6
#
DISCID=a908eb0d
DTITLE=The Honeybees - In The Key Of Bee !
DYEAR=2010
DGENRE=Rock and Roll
TTITLE0=Good Time
TTITLE1=So Nervous
TTITLE2=In Crowd
TTITLE3=It's Not Me
TTITLE4=Castin' My Spell
TTITLE5=Wonderous Place
TTITLE6=Why You
TTITLE7=BEEline-2319
TTITLE8=Nrama II (Don't Let Me Let You Down)
TTITLE9=Love You Endlessly
TTITLE10=Tall Drink Of Water
TTITLE11=Rusty
TTITLE12=Jezebel
EXTD=
EXTT0=
EXTT1=
EXTT2=
EXTT3=
EXTT4=
EXTT5=
EXTT6=
EXTT7=
EXTT8=
EXTT9=
EXTT10=
EXTT11=
EXTT12=
PLAYORDER=
